G04 #@! TF.GenerationSoftware,KiCad,Pcbnew,6.0.2+dfsg-1~bpo11+1*
G04 #@! TF.CreationDate,2022-03-16T10:56:09+00:00*
G04 #@! TF.ProjectId,mobo,6d6f626f-2e6b-4696-9361-645f70636258,rev?*
G04 #@! TF.SameCoordinates,Original*
G04 #@! TF.FileFunction,Paste,Top*
G04 #@! TF.FilePolarity,Positive*
%FSLAX46Y46*%
G04 Gerber Fmt 4.6, Leading zero omitted, Abs format (unit mm)*
G04 Created by KiCad (PCBNEW 6.0.2+dfsg-1~bpo11+1) date 2022-03-16 10:56:09*
%MOMM*%
%LPD*%
G01*
G04 APERTURE LIST*
G04 Aperture macros list*
%AMRoundRect*
0 Rectangle with rounded corners*
0 $1 Rounding radius*
0 $2 $3 $4 $5 $6 $7 $8 $9 X,Y pos of 4 corners*
0 Add a 4 corners polygon primitive as box body*
4,1,4,$2,$3,$4,$5,$6,$7,$8,$9,$2,$3,0*
0 Add four circle primitives for the rounded corners*
1,1,$1+$1,$2,$3*
1,1,$1+$1,$4,$5*
1,1,$1+$1,$6,$7*
1,1,$1+$1,$8,$9*
0 Add four rect primitives between the rounded corners*
20,1,$1+$1,$2,$3,$4,$5,0*
20,1,$1+$1,$4,$5,$6,$7,0*
20,1,$1+$1,$6,$7,$8,$9,0*
20,1,$1+$1,$8,$9,$2,$3,0*%
G04 Aperture macros list end*
%ADD10R,1.100000X1.100000*%
%ADD11R,0.800000X0.900000*%
%ADD12RoundRect,0.249999X-0.262501X-0.450001X0.262501X-0.450001X0.262501X0.450001X-0.262501X0.450001X0*%
%ADD13RoundRect,0.075000X0.662500X0.075000X-0.662500X0.075000X-0.662500X-0.075000X0.662500X-0.075000X0*%
%ADD14RoundRect,0.075000X0.075000X0.662500X-0.075000X0.662500X-0.075000X-0.662500X0.075000X-0.662500X0*%
%ADD15RoundRect,0.237500X-0.375000X-0.237500X0.375000X-0.237500X0.375000X0.237500X-0.375000X0.237500X0*%
%ADD16R,1.160000X0.600000*%
%ADD17R,1.160000X0.300000*%
%ADD18RoundRect,0.250000X-1.500000X-0.550000X1.500000X-0.550000X1.500000X0.550000X-1.500000X0.550000X0*%
%ADD19RoundRect,0.243750X-0.456250X0.243750X-0.456250X-0.243750X0.456250X-0.243750X0.456250X0.243750X0*%
%ADD20RoundRect,0.249999X0.450001X-0.262501X0.450001X0.262501X-0.450001X0.262501X-0.450001X-0.262501X0*%
%ADD21RoundRect,0.250000X1.500000X0.550000X-1.500000X0.550000X-1.500000X-0.550000X1.500000X-0.550000X0*%
%ADD22RoundRect,0.150000X0.150000X-0.725000X0.150000X0.725000X-0.150000X0.725000X-0.150000X-0.725000X0*%
%ADD23R,5.500000X1.430000*%
%ADD24RoundRect,0.150000X0.825000X0.150000X-0.825000X0.150000X-0.825000X-0.150000X0.825000X-0.150000X0*%
%ADD25R,1.800000X2.500000*%
%ADD26RoundRect,0.250000X-0.475000X0.250000X-0.475000X-0.250000X0.475000X-0.250000X0.475000X0.250000X0*%
%ADD27RoundRect,0.249999X-0.450001X0.262501X-0.450001X-0.262501X0.450001X-0.262501X0.450001X0.262501X0*%
%ADD28RoundRect,0.250000X0.475000X-0.250000X0.475000X0.250000X-0.475000X0.250000X-0.475000X-0.250000X0*%
%ADD29RoundRect,0.250000X0.250000X0.475000X-0.250000X0.475000X-0.250000X-0.475000X0.250000X-0.475000X0*%
%ADD30RoundRect,0.250000X-0.250000X-0.475000X0.250000X-0.475000X0.250000X0.475000X-0.250000X0.475000X0*%
%ADD31R,1.200000X1.400000*%
%ADD32R,0.600000X0.450000*%
%ADD33RoundRect,0.150000X-0.150000X-0.625000X0.150000X-0.625000X0.150000X0.625000X-0.150000X0.625000X0*%
%ADD34RoundRect,0.249999X-0.350001X-0.650001X0.350001X-0.650001X0.350001X0.650001X-0.350001X0.650001X0*%
%ADD35RoundRect,0.075000X0.725000X0.075000X-0.725000X0.075000X-0.725000X-0.075000X0.725000X-0.075000X0*%
%ADD36RoundRect,0.075000X0.075000X0.725000X-0.075000X0.725000X-0.075000X-0.725000X0.075000X-0.725000X0*%
%ADD37RoundRect,0.249999X0.262501X0.450001X-0.262501X0.450001X-0.262501X-0.450001X0.262501X-0.450001X0*%
%ADD38R,1.400000X1.200000*%
%ADD39RoundRect,0.150000X0.150000X-0.825000X0.150000X0.825000X-0.150000X0.825000X-0.150000X-0.825000X0*%
%ADD40R,1.500000X2.000000*%
%ADD41R,3.800000X2.000000*%
%ADD42RoundRect,0.243750X0.243750X0.456250X-0.243750X0.456250X-0.243750X-0.456250X0.243750X-0.456250X0*%
%ADD43RoundRect,0.100000X0.712500X0.100000X-0.712500X0.100000X-0.712500X-0.100000X0.712500X-0.100000X0*%
%ADD44R,1.550000X1.300000*%
%ADD45R,0.740000X2.400000*%
%ADD46RoundRect,0.150000X-0.150000X0.825000X-0.150000X-0.825000X0.150000X-0.825000X0.150000X0.825000X0*%
%ADD47RoundRect,0.218750X-0.381250X0.218750X-0.381250X-0.218750X0.381250X-0.218750X0.381250X0.218750X0*%
%ADD48RoundRect,0.218750X-0.218750X-0.381250X0.218750X-0.381250X0.218750X0.381250X-0.218750X0.381250X0*%
%ADD49RoundRect,0.250000X-0.262500X-0.450000X0.262500X-0.450000X0.262500X0.450000X-0.262500X0.450000X0*%
G04 APERTURE END LIST*
D10*
X157920000Y-152350000D03*
X155120000Y-152350000D03*
D11*
X157680000Y-148080000D03*
X155780000Y-148080000D03*
X156730000Y-150080000D03*
X157870000Y-139900000D03*
X155970000Y-139900000D03*
X156920000Y-141900000D03*
D12*
X151617500Y-148620000D03*
X153442500Y-148620000D03*
D13*
X91162500Y-150840000D03*
X91162500Y-150340000D03*
X91162500Y-149840000D03*
X91162500Y-149340000D03*
X91162500Y-148840000D03*
X91162500Y-148340000D03*
X91162500Y-147840000D03*
X91162500Y-147340000D03*
X91162500Y-146840000D03*
X91162500Y-146340000D03*
X91162500Y-145840000D03*
X91162500Y-145340000D03*
D14*
X89750000Y-143927500D03*
X89250000Y-143927500D03*
X88750000Y-143927500D03*
X88250000Y-143927500D03*
X87750000Y-143927500D03*
X87250000Y-143927500D03*
X86750000Y-143927500D03*
X86250000Y-143927500D03*
X85750000Y-143927500D03*
X85250000Y-143927500D03*
X84750000Y-143927500D03*
X84250000Y-143927500D03*
D13*
X82837500Y-145340000D03*
X82837500Y-145840000D03*
X82837500Y-146340000D03*
X82837500Y-146840000D03*
X82837500Y-147340000D03*
X82837500Y-147840000D03*
X82837500Y-148340000D03*
X82837500Y-148840000D03*
X82837500Y-149340000D03*
X82837500Y-149840000D03*
X82837500Y-150340000D03*
X82837500Y-150840000D03*
D14*
X84250000Y-152252500D03*
X84750000Y-152252500D03*
X85250000Y-152252500D03*
X85750000Y-152252500D03*
X86250000Y-152252500D03*
X86750000Y-152252500D03*
X87250000Y-152252500D03*
X87750000Y-152252500D03*
X88250000Y-152252500D03*
X88750000Y-152252500D03*
X89250000Y-152252500D03*
X89750000Y-152252500D03*
D15*
X90222500Y-156880000D03*
X90222500Y-159420000D03*
X90222500Y-161960000D03*
X100197500Y-161960000D03*
X100197500Y-159420000D03*
X100197500Y-156880000D03*
D16*
X75810000Y-147440000D03*
X75810000Y-148240000D03*
D17*
X75810000Y-149390000D03*
X75810000Y-150390000D03*
X75810000Y-150890000D03*
X75810000Y-151890000D03*
D16*
X75810000Y-153040000D03*
X75810000Y-153840000D03*
X75810000Y-153840000D03*
X75810000Y-153040000D03*
D17*
X75810000Y-152390000D03*
X75810000Y-151390000D03*
X75810000Y-149890000D03*
X75810000Y-148890000D03*
D16*
X75810000Y-148240000D03*
X75810000Y-147440000D03*
D10*
X157940000Y-136450000D03*
X155140000Y-136450000D03*
D12*
X152327500Y-123270000D03*
X154152500Y-123270000D03*
D11*
X157860000Y-131840000D03*
X155960000Y-131840000D03*
X156910000Y-133840000D03*
X157940000Y-123240000D03*
X156040000Y-123240000D03*
X156990000Y-125240000D03*
D12*
X152367500Y-139950000D03*
X154192500Y-139950000D03*
X152387500Y-131920000D03*
X154212500Y-131920000D03*
X152317500Y-125310000D03*
X154142500Y-125310000D03*
D18*
X94240000Y-81580000D03*
X99640000Y-81580000D03*
D12*
X99477500Y-86470000D03*
X101302500Y-86470000D03*
X78557500Y-86310000D03*
X80382500Y-86310000D03*
D18*
X115240000Y-81580000D03*
X120640000Y-81580000D03*
D12*
X120607500Y-86270000D03*
X122432500Y-86270000D03*
D18*
X136240000Y-81580000D03*
X141640000Y-81580000D03*
D12*
X141437500Y-86310000D03*
X143262500Y-86310000D03*
D19*
X154680000Y-80830000D03*
X154680000Y-82705000D03*
D20*
X154680000Y-79262500D03*
X154680000Y-77437500D03*
D21*
X160730000Y-90600000D03*
X155330000Y-90600000D03*
D22*
X163725000Y-93295000D03*
X164995000Y-93295000D03*
X166265000Y-93295000D03*
X167535000Y-93295000D03*
X167535000Y-88145000D03*
X166265000Y-88145000D03*
X164995000Y-88145000D03*
X163725000Y-88145000D03*
D12*
X141277500Y-109270000D03*
X143102500Y-109270000D03*
X120237500Y-109220000D03*
X122062500Y-109220000D03*
D23*
X157030000Y-103160000D03*
X157030000Y-107200000D03*
D24*
X108275000Y-102205000D03*
X108275000Y-100935000D03*
X108275000Y-99665000D03*
X108275000Y-98395000D03*
X103325000Y-98395000D03*
X103325000Y-99665000D03*
X103325000Y-100935000D03*
X103325000Y-102205000D03*
D12*
X152377500Y-133950000D03*
X154202500Y-133950000D03*
D25*
X155120000Y-100040000D03*
X155120000Y-96040000D03*
D26*
X130770000Y-135950000D03*
X130770000Y-137850000D03*
X111910000Y-132350000D03*
X111910000Y-134250000D03*
D27*
X121084000Y-115037500D03*
X121084000Y-116862500D03*
D28*
X131980000Y-116900000D03*
X131980000Y-115000000D03*
D29*
X136010000Y-131415000D03*
X134110000Y-131415000D03*
D30*
X134110000Y-124925000D03*
X136010000Y-124925000D03*
D27*
X116860000Y-115037500D03*
X116860000Y-116862500D03*
D31*
X135910000Y-129270000D03*
X135910000Y-127070000D03*
X134210000Y-127070000D03*
X134210000Y-129270000D03*
D20*
X123230000Y-116862500D03*
X123230000Y-115037500D03*
D12*
X151577500Y-150670000D03*
X153402500Y-150670000D03*
D15*
X78152500Y-156850000D03*
X78152500Y-159390000D03*
X78152500Y-161930000D03*
X88127500Y-161930000D03*
X88127500Y-159390000D03*
X88127500Y-156850000D03*
D12*
X152377500Y-141920000D03*
X154202500Y-141920000D03*
D10*
X158000000Y-144460000D03*
X155200000Y-144460000D03*
D30*
X103420000Y-104110000D03*
X105320000Y-104110000D03*
D32*
X158400000Y-111640000D03*
X156300000Y-111640000D03*
X72610000Y-143510000D03*
X74710000Y-143510000D03*
D33*
X142360000Y-153875000D03*
X143360000Y-153875000D03*
X144360000Y-153875000D03*
X145360000Y-153875000D03*
D34*
X146660000Y-151350000D03*
X141060000Y-151350000D03*
D35*
X130465000Y-132910000D03*
X130465000Y-132410000D03*
X130465000Y-131910000D03*
X130465000Y-131410000D03*
X130465000Y-130910000D03*
X130465000Y-130410000D03*
X130465000Y-129910000D03*
X130465000Y-129410000D03*
X130465000Y-128910000D03*
X130465000Y-128410000D03*
X130465000Y-127910000D03*
X130465000Y-127410000D03*
X130465000Y-126910000D03*
X130465000Y-126410000D03*
X130465000Y-125910000D03*
X130465000Y-125410000D03*
X130465000Y-124910000D03*
X130465000Y-124410000D03*
X130465000Y-123910000D03*
X130465000Y-123410000D03*
X130465000Y-122910000D03*
X130465000Y-122410000D03*
X130465000Y-121910000D03*
X130465000Y-121410000D03*
X130465000Y-120910000D03*
D36*
X128790000Y-119235000D03*
X128290000Y-119235000D03*
X127790000Y-119235000D03*
X127290000Y-119235000D03*
X126790000Y-119235000D03*
X126290000Y-119235000D03*
X125790000Y-119235000D03*
X125290000Y-119235000D03*
X124790000Y-119235000D03*
X124290000Y-119235000D03*
X123790000Y-119235000D03*
X123290000Y-119235000D03*
X122790000Y-119235000D03*
X122290000Y-119235000D03*
X121790000Y-119235000D03*
X121290000Y-119235000D03*
X120790000Y-119235000D03*
X120290000Y-119235000D03*
X119790000Y-119235000D03*
X119290000Y-119235000D03*
X118790000Y-119235000D03*
X118290000Y-119235000D03*
X117790000Y-119235000D03*
X117290000Y-119235000D03*
X116790000Y-119235000D03*
D35*
X115115000Y-120910000D03*
X115115000Y-121410000D03*
X115115000Y-121910000D03*
X115115000Y-122410000D03*
X115115000Y-122910000D03*
X115115000Y-123410000D03*
X115115000Y-123910000D03*
X115115000Y-124410000D03*
X115115000Y-124910000D03*
X115115000Y-125410000D03*
X115115000Y-125910000D03*
X115115000Y-126410000D03*
X115115000Y-126910000D03*
X115115000Y-127410000D03*
X115115000Y-127910000D03*
X115115000Y-128410000D03*
X115115000Y-128910000D03*
X115115000Y-129410000D03*
X115115000Y-129910000D03*
X115115000Y-130410000D03*
X115115000Y-130910000D03*
X115115000Y-131410000D03*
X115115000Y-131910000D03*
X115115000Y-132410000D03*
X115115000Y-132910000D03*
D36*
X116790000Y-134585000D03*
X117290000Y-134585000D03*
X117790000Y-134585000D03*
X118290000Y-134585000D03*
X118790000Y-134585000D03*
X119290000Y-134585000D03*
X119790000Y-134585000D03*
X120290000Y-134585000D03*
X120790000Y-134585000D03*
X121290000Y-134585000D03*
X121790000Y-134585000D03*
X122290000Y-134585000D03*
X122790000Y-134585000D03*
X123290000Y-134585000D03*
X123790000Y-134585000D03*
X124290000Y-134585000D03*
X124790000Y-134585000D03*
X125290000Y-134585000D03*
X125790000Y-134585000D03*
X126290000Y-134585000D03*
X126790000Y-134585000D03*
X127290000Y-134585000D03*
X127790000Y-134585000D03*
X128290000Y-134585000D03*
X128790000Y-134585000D03*
D12*
X97827500Y-154600000D03*
X99652500Y-154600000D03*
D37*
X99662500Y-152630000D03*
X97837500Y-152630000D03*
D20*
X103560000Y-154122500D03*
X103560000Y-152297500D03*
X101540000Y-154132500D03*
X101540000Y-152307500D03*
X101980000Y-144860000D03*
X101980000Y-143035000D03*
X94300000Y-147302500D03*
X94300000Y-145477500D03*
D12*
X78137500Y-149320000D03*
X79962500Y-149320000D03*
X78137500Y-152440000D03*
X79962500Y-152440000D03*
D27*
X107680000Y-94707500D03*
X107680000Y-96532500D03*
D24*
X107335000Y-159645000D03*
X107335000Y-158375000D03*
X107335000Y-157105000D03*
X107335000Y-155835000D03*
X102385000Y-155835000D03*
X102385000Y-157105000D03*
X102385000Y-158375000D03*
X102385000Y-159645000D03*
D38*
X93960000Y-141500000D03*
X91760000Y-141500000D03*
X91760000Y-143200000D03*
X93960000Y-143200000D03*
D39*
X103885000Y-146925000D03*
X105155000Y-146925000D03*
X106425000Y-146925000D03*
X107695000Y-146925000D03*
X107695000Y-141975000D03*
X106425000Y-141975000D03*
X105155000Y-141975000D03*
X103885000Y-141975000D03*
X96295000Y-146935000D03*
X97565000Y-146935000D03*
X98835000Y-146935000D03*
X100105000Y-146935000D03*
X100105000Y-141985000D03*
X98835000Y-141985000D03*
X97565000Y-141985000D03*
X96295000Y-141985000D03*
D40*
X167240000Y-113030000D03*
D41*
X164940000Y-119330000D03*
D40*
X164940000Y-113030000D03*
X162640000Y-113030000D03*
D28*
X129880000Y-116900000D03*
X129880000Y-115000000D03*
X114700000Y-116900000D03*
X114700000Y-115000000D03*
X127800000Y-116900000D03*
X127800000Y-115000000D03*
D30*
X134110000Y-133540000D03*
X136010000Y-133540000D03*
X134110000Y-118611666D03*
X136010000Y-118611666D03*
D28*
X112550000Y-116900000D03*
X112550000Y-115000000D03*
D30*
X134110000Y-114655000D03*
X136010000Y-114655000D03*
D26*
X114580000Y-136040000D03*
X114580000Y-137940000D03*
D30*
X158240000Y-95240000D03*
X160140000Y-95240000D03*
D42*
X88577500Y-154490000D03*
X86702500Y-154490000D03*
D37*
X148642500Y-137500000D03*
X146817500Y-137500000D03*
X79972500Y-145790000D03*
X78147500Y-145790000D03*
D12*
X90867500Y-154420000D03*
X92692500Y-154420000D03*
D43*
X103702500Y-139695000D03*
X103702500Y-139045000D03*
X103702500Y-138395000D03*
X103702500Y-137745000D03*
X99477500Y-137745000D03*
X99477500Y-138395000D03*
X99477500Y-139045000D03*
X99477500Y-139695000D03*
D30*
X93230000Y-150420000D03*
X95130000Y-150420000D03*
D26*
X103710000Y-161350000D03*
X103710000Y-163250000D03*
D20*
X105560000Y-154112500D03*
X105560000Y-152287500D03*
D27*
X107550000Y-152307500D03*
X107550000Y-154132500D03*
D30*
X141380000Y-137390000D03*
X143280000Y-137390000D03*
D44*
X141025000Y-120660000D03*
X148975000Y-120660000D03*
X148975000Y-116160000D03*
X141025000Y-116160000D03*
D30*
X157940000Y-100510000D03*
X159840000Y-100510000D03*
D26*
X167770000Y-95310000D03*
X167770000Y-97210000D03*
D45*
X142340000Y-131590000D03*
X142340000Y-127690000D03*
X143610000Y-131590000D03*
X143610000Y-127690000D03*
X144880000Y-131590000D03*
X144880000Y-127690000D03*
X146150000Y-131590000D03*
X146150000Y-127690000D03*
X147420000Y-131590000D03*
X147420000Y-127690000D03*
D30*
X134110000Y-122800000D03*
X136010000Y-122800000D03*
D44*
X141025000Y-143040000D03*
X148975000Y-143040000D03*
X148975000Y-147540000D03*
X141025000Y-147540000D03*
D46*
X165865000Y-95835000D03*
X164595000Y-95835000D03*
X163325000Y-95835000D03*
X162055000Y-95835000D03*
X162055000Y-100785000D03*
X163325000Y-100785000D03*
X164595000Y-100785000D03*
X165865000Y-100785000D03*
D29*
X162750000Y-110200000D03*
X160850000Y-110200000D03*
D28*
X160200000Y-119890000D03*
X160200000Y-117990000D03*
D10*
X157920000Y-127880000D03*
X155120000Y-127880000D03*
D47*
X106190000Y-161257500D03*
X106190000Y-163382500D03*
D30*
X134110000Y-120720000D03*
X136010000Y-120720000D03*
D48*
X133997500Y-116633333D03*
X136122500Y-116633333D03*
D30*
X105836000Y-137456000D03*
X107736000Y-137456000D03*
X105816000Y-139516000D03*
X107716000Y-139516000D03*
D20*
X149730000Y-130222500D03*
X149730000Y-128397500D03*
X165015000Y-105082500D03*
X165015000Y-103257500D03*
D28*
X162370000Y-105120000D03*
X162370000Y-103220000D03*
D49*
X164487500Y-110220000D03*
X166312500Y-110220000D03*
D27*
X167630000Y-103257500D03*
X167630000Y-105082500D03*
D29*
X158260000Y-113850000D03*
X156360000Y-113850000D03*
X158270000Y-115905000D03*
X156370000Y-115905000D03*
X158270000Y-117960000D03*
X156370000Y-117960000D03*
D18*
X73240000Y-81580000D03*
X78640000Y-81580000D03*
X114940000Y-104450000D03*
X120340000Y-104450000D03*
X135990000Y-104520000D03*
X141390000Y-104520000D03*
M02*
